<svg width="16" height="16" viewBox="0 0 16 16" fill="none" xmlns="http://www.w3.org/2000/svg">
<path d="M11.9562 12.8386C9.37289 11.7825 5.76603 10.3122 5.2299 10.1009C4.35254 9.76791 4.04381 9.08553 4.04381 8.60627C4.04381 8.28129 4.04381 5.25119 4.03568 3.06595C2.92279 2.64356 2.02918 2.29421 1.66366 2.14797C0.380161 1.61184 0.0470581 1.95307 0.0470581 2.77355C0.0470581 3.59396 0.0551824 10.0198 0.0551824 10.5072C0.0551824 10.9864 0.363912 11.6688 1.24119 12.0019C2.1023 12.3268 10.6564 15.8362 10.6564 15.8362C11.6962 16.2749 11.9562 15.7387 11.9562 15.3244C11.9562 15.3163 11.9562 14.1628 11.9562 12.8386Z" fill="#398EFE"/>
<path d="M15.9449 8.43885C15.9449 7.15535 15.9449 6.00184 15.9449 5.7256C15.9449 5.04323 15.7093 4.31211 14.7101 3.94659C14.7101 3.94659 11.0707 2.33811 8.13813 1.22514C6.96837 0.778374 6.02602 0.412773 5.65229 0.258489C4.36879 -0.277693 4.03577 0.0634941 4.03577 0.883992C4.03577 1.15202 4.03577 2.01313 4.03577 3.06923C4.07639 3.08548 4.11701 3.10173 4.15763 3.11798C7.08203 4.23086 10.7289 5.83301 10.7289 5.83301C11.7282 6.19853 11.956 6.9342 11.956 7.61657C11.956 7.89272 11.9563 9.04591 11.9563 10.3295C11.9563 11.0687 11.9562 11.987 11.9562 12.84C13.4753 13.4573 14.6532 13.9467 14.6532 13.9467C15.6931 14.3853 15.953 13.8492 15.953 13.4348C15.9449 13.4348 15.9449 10.3236 15.9449 8.43885Z" fill="#F9529E"/>
<path d="M11.9562 10.3932C11.9562 9.91969 11.9562 8.36524 11.9562 7.64297C11.9562 6.92079 11.7238 6.57054 11.537 6.35508C11.3502 6.13962 11.1241 6.01264 10.988 5.94252C10.8519 5.87241 9.27971 5.21043 8.88551 5.03835C8.35393 4.80632 5.95713 3.80766 5.25168 3.54207C4.54623 3.27656 4.06827 3.0793 4.02765 3.06305C4.02765 5.25641 4.03577 8.27473 4.03577 8.59971C4.03577 9.21408 4.47084 9.80294 5.19855 10.0888C5.73468 10.2995 11.9562 12.84 11.9562 12.84C11.9562 12.84 11.9562 11.2604 11.9562 10.3932Z" fill="#382E9D"/>
</svg>
